<svg xmlns="http://www.w3.org/2000/svg" width="1200" height="360" viewBox="0 0 1200 360" role="img" aria-label="Alexey neon banner">
  <defs>
    <linearGradient id="g-neon" x1="0" y1="0" x2="1" y2="0">
      <stop offset="0" stop-color="#00e5ff"/>
      <stop offset="0.5" stop-color="#2f6bff"/>
      <stop offset="1" stop-color="#00e5ff"/>
    </linearGradient>

    <linearGradient id="g-scan" x1="0" y1="0" x2="0" y2="1">
      <stop offset="0" stop-color="#00e5ff" stop-opacity="0"/>
      <stop offset="0.5" stop-color="#00e5ff" stop-opacity="0.16"/>
      <stop offset="1" stop-color="#00e5ff" stop-opacity="0"/>
    </linearGradient>

    <filter id="f-glow" x="-40%" y="-60%" width="180%" height="220%">
      <feGaussianBlur stdDeviation="6" result="b"/>
      <feColorMatrix in="b" type="matrix"
        values="1 0 0 0 0
                0 1 0 0 0.15
                0 0 2 0 0.4
                0 0 0 0.9 0" result="c"/>
      <feMerge>
        <feMergeNode in="c"/>
        <feMergeNode in="SourceGraphic"/>
      </feMerge>
    </filter>

    <filter id="f-noise">
      <feTurbulence type="fractalNoise" baseFrequency=".9" numOctaves="2" stitchTiles="stitch" />
      <feColorMatrix type="matrix"
        values="1 0 0 0 0
                0 1 0 0 0
                0 0 1 0 0
                0 0 0 .06 0"/>
    </filter>

    <mask id="m-type">
      <rect x="90" y="170" width="0" height="70" fill="#fff" class="typeMask"/>
    </mask>

    <style>
      :root { color-scheme: dark; }

      .bg { fill: #050713; }
      .grid line { stroke: #0b1b3a; stroke-width: 1; opacity: .6; }

      .frame {
        fill: none;
        stroke: url(#g-neon);
        stroke-width: 2.2;
        filter: url(#f-glow);
        opacity: .95;
      }
      .frameGlow {
        fill: none;
        stroke: #00e5ff;
        stroke-width: 6;
        opacity: .12;
        filter: url(#f-glow);
      }

      .scan {
        fill: url(#g-scan);
        opacity: .45;
        transform: translateY(-160px);
        animation: scan 3.2s linear infinite;
      }

      .title {
        font: 700 46px ui-sans-serif, system-ui, -apple-system, Segoe UI, Roboto, Arial;
        letter-spacing: 0.3px;
        fill: #eaf6ff;
        filter: url(#f-glow);
      }
      .subtitle {
        font: 600 22px ui-sans-serif, system-ui, -apple-system, Segoe UI, Roboto, Arial;
        fill: #b9d7ff;
        opacity: .95;
      }
      .quote {
        font: 500 18px ui-monospace, SFMono-Regular, Menlo, Monaco, Consolas, "Liberation Mono", monospace;
        fill: #9ad7ff;
        opacity: .95;
      }

      /* Snow sticks */
      .snow {
        stroke: #00e5ff;
        stroke-width: 2;
        stroke-linecap: round;
        opacity: .09;
        filter: url(#f-glow);
      }
      .snowThin {
        stroke: #9ad7ff;
        stroke-width: 1.4;
        stroke-linecap: round;
        opacity: .07;
        filter: url(#f-glow);
      }

      /* Each group has its own speed and drift */
      .fall1 { animation: fall 6.5s linear infinite, drift1 3.8s ease-in-out infinite; }
      .fall2 { animation: fall 8.2s linear infinite, drift2 4.6s ease-in-out infinite; }
      .fall3 { animation: fall 10.0s linear infinite, drift1 5.2s ease-in-out infinite; }
      .fall4 { animation: fall 7.3s linear infinite, drift2 4.0s ease-in-out infinite; }
      .fall5 { animation: fall 9.1s linear infinite, drift1 4.4s ease-in-out infinite; }

      .tw1 { animation-delay: -1.2s; }
      .tw2 { animation-delay: -2.7s; }
      .tw3 { animation-delay: -4.1s; }
      .tw4 { animation-delay: -5.6s; }
      .tw5 { animation-delay: -3.3s; }

      .cursor {
        fill: #00e5ff;
        filter: url(#f-glow);
        animation: blink 1s steps(1,end) infinite;
      }

      .flicker { animation: flicker 4.5s infinite; }
      .typeMask { animation: type 2.6s steps(36,end) 0.35s forwards; }

      @keyframes scan {
        0%   { transform: translateY(-160px); opacity: 0; }
        10%  { opacity: .45; }
        90%  { opacity: .45; }
        100% { transform: translateY(600px); opacity: 0; }
      }

      @keyframes fall {
        0%   { transform: translateY(-120px); opacity: 0; }
        10%  { opacity: .09; }
        90%  { opacity: .09; }
        100% { transform: translateY(520px); opacity: 0; }
      }

      @keyframes drift1 {
        0%,100% { transform: translateX(0px); }
        50%     { transform: translateX(10px); }
      }

      @keyframes drift2 {
        0%,100% { transform: translateX(0px); }
        50%     { transform: translateX(-12px); }
      }

      @keyframes blink {
        0%, 49% { opacity: 1; }
        50%, 100% { opacity: 0; }
      }

      @keyframes type {
        from { width: 0; }
        to   { width: 1020px; }
      }

      @keyframes flicker {
        0%, 100% { opacity: 1; }
        4% { opacity: .85; }
        5% { opacity: 1; }
        23% { opacity: .92; }
        24% { opacity: 1; }
        63% { opacity: .88; }
        64% { opacity: 1; }
      }
    </style>
  </defs>

  <rect class="bg" x="0" y="0" width="1200" height="360" rx="22"/>

  <!-- Grid -->
  <g class="grid">
    <g>
      <line x1="80"  y1="40" x2="80"  y2="320"/>
      <line x1="160" y1="40" x2="160" y2="320"/>
      <line x1="240" y1="40" x2="240" y2="320"/>
      <line x1="320" y1="40" x2="320" y2="320"/>
      <line x1="400" y1="40" x2="400" y2="320"/>
      <line x1="480" y1="40" x2="480" y2="320"/>
      <line x1="560" y1="40" x2="560" y2="320"/>
      <line x1="640" y1="40" x2="640" y2="320"/>
      <line x1="720" y1="40" x2="720" y2="320"/>
      <line x1="800" y1="40" x2="800" y2="320"/>
      <line x1="880" y1="40" x2="880" y2="320"/>
      <line x1="960" y1="40" x2="960" y2="320"/>
      <line x1="1040" y1="40" x2="1040" y2="320"/>
      <line x1="1120" y1="40" x2="1120" y2="320"/>
    </g>
    <g>
      <line x1="60" y1="80"  x2="1140" y2="80"/>
      <line x1="60" y1="140" x2="1140" y2="140"/>
      <line x1="60" y1="200" x2="1140" y2="200"/>
      <line x1="60" y1="260" x2="1140" y2="260"/>
      <line x1="60" y1="320" x2="1140" y2="320"/>
    </g>
  </g>

  <rect x="0" y="0" width="1200" height="360" rx="22" filter="url(#f-noise)"/>

  <!-- Snow sticks layer (behind frame/text) -->
  <g>
    <!-- group A -->
    <g class="fall1 tw1">
      <line class="snow" x1="140" y1="10" x2="140" y2="26"/>
      <line class="snowThin" x1="210" y1="40" x2="210" y2="54"/>
      <line class="snow" x1="320" y1="80" x2="320" y2="96"/>
      <line class="snowThin" x1="460" y1="20" x2="460" y2="32"/>
      <line class="snow" x1="620" y1="60" x2="620" y2="78"/>
      <line class="snowThin" x1="760" y1="15" x2="760" y2="27"/>
      <line class="snow" x1="980" y1="75" x2="980" y2="93"/>
      <line class="snowThin" x1="1100" y1="35" x2="1100" y2="47"/>
    </g>

    <!-- group B -->
    <g class="fall2 tw2">
      <line class="snowThin" x1="90" y1="30" x2="90" y2="42"/>
      <line class="snow" x1="260" y1="10" x2="260" y2="28"/>
      <line class="snowThin" x1="390" y1="70" x2="390" y2="84"/>
      <line class="snow" x1="540" y1="25" x2="540" y2="43"/>
      <line class="snowThin" x1="690" y1="85" x2="690" y2="97"/>
      <line class="snow" x1="840" y1="40" x2="840" y2="58"/>
      <line class="snowThin" x1="1010" y1="15" x2="1010" y2="29"/>
      <line class="snow" x1="1160" y1="65" x2="1160" y2="83"/>
    </g>

    <!-- group C -->
    <g class="fall3 tw3">
      <line class="snow" x1="180" y1="95" x2="180" y2="113"/>
      <line class="snowThin" x1="300" y1="45" x2="300" y2="57"/>
      <line class="snow" x1="430" y1="110" x2="430" y2="128"/>
      <line class="snowThin" x1="580" y1="30" x2="580" y2="42"/>
      <line class="snow" x1="720" y1="120" x2="720" y2="138"/>
      <line class="snowThin" x1="900" y1="55" x2="900" y2="67"/>
      <line class="snow" x1="1060" y1="105" x2="1060" y2="123"/>
    </g>

    <!-- group D -->
    <g class="fall4 tw4">
      <line class="snowThin" x1="120" y1="130" x2="120" y2="142"/>
      <line class="snow" x1="240" y1="160" x2="240" y2="178"/>
      <line class="snowThin" x1="360" y1="140" x2="360" y2="152"/>
      <line class="snow" x1="520" y1="150" x2="520" y2="168"/>
      <line class="snowThin" x1="660" y1="170" x2="660" y2="182"/>
      <line class="snow" x1="820" y1="145" x2="820" y2="163"/>
      <line class="snowThin" x1="960" y1="155" x2="960" y2="167"/>
      <line class="snow" x1="1120" y1="135" x2="1120" y2="153"/>
    </g>

    <!-- group E -->
    <g class="fall5 tw5">
      <line class="snow" x1="70" y1="185" x2="70" y2="203"/>
      <line class="snowThin" x1="210" y1="200" x2="210" y2="212"/>
      <line class="snow" x1="340" y1="190" x2="340" y2="208"/>
      <line class="snowThin" x1="470" y1="215" x2="470" y2="227"/>
      <line class="snow" x1="610" y1="205" x2="610" y2="223"/>
      <line class="snowThin" x1="760" y1="195" x2="760" y2="207"/>
      <line class="snow" x1="910" y1="220" x2="910" y2="238"/>
      <line class="snowThin" x1="1040" y1="205" x2="1040" y2="217"/>
    </g>
  </g>

  <!-- Frame -->
  <rect x="26" y="24" width="1148" height="312" rx="18" class="frameGlow"/>
  <rect x="26" y="24" width="1148" height="312" rx="18" class="frame"/>

  <!-- Scanline -->
  <rect x="26" y="24" width="1148" height="140" rx="18" class="scan"/>

  <!-- Text -->
  <g class="flicker">
    <text x="90" y="120" class="title">Алексей</text>
    <text x="320" y="120" class="title" fill="url(#g-neon)">Frontend Developer</text>
    <text x="90" y="155" class="subtitle">React • Dart • Node.js • UI/UX • Animations</text>
  </g>

  <!-- Typewriter quote -->
  <g mask="url(#m-type)">
    <text x="90" y="210" class="quote">“Код — это искусство, а разработка — это магия.”</text>
  </g>
  <rect x="1080" y="193" width="10" height="24" rx="2" class="cursor"/>

  <!-- Chips -->
  <g>
    <rect x="90" y="270" width="260" height="34" rx="17"
          fill="#071a3a" stroke="#00e5ff" stroke-opacity=".35"/>
    <text x="110" y="293" class="quote" font-size="14" fill="#bfe9ff">available for projects</text>

    <rect x="370" y="270" width="210" height="34" rx="17"
          fill="#071a3a" stroke="#2f6bff" stroke-opacity=".35"/>
    <text x="392" y="293" class="quote" font-size="14" fill="#cfe2ff">building cool UI</text>
  </g>
</svg>
